<svg width="24" height="24" viewBox="0 0 24 24" fill="none" xmlns="http://www.w3.org/2000/svg">
<path d="M10.4822 6.15532C9.11321 6.15532 3.85758 5.88889 3.33469 6.15532C2.87473 6.38967 2.50078 6.76362 2.26643 7.22358C2 7.74647 2 8.43099 2 9.8V19.0889C2 20.4579 2 21.1425 2.26643 21.6653C2.50078 22.1253 2.87473 22.4993 3.33469 22.7336C3.85758 23 4.5421 23 5.91111 23H10.3111C11.6801 23 12.3647 23 12.8876 22.7336C13.3475 22.4993 13.7215 22.1253 13.9558 21.6653C14.2222 21.1425 14.2222 19.4801 14.2222 18.1111M22.7044 7.11111V14.2C22.7044 15.569 22.7044 16.2536 22.438 16.7764C22.2037 17.2364 21.8297 17.6104 21.3698 17.8447C20.8469 18.1111 20.1623 18.1111 18.7933 18.1111H14.3933C13.0243 18.1111 12.3398 18.1111 11.8169 17.8447C11.357 17.6104 10.983 17.2364 10.7487 16.7764C10.4822 16.2536 10.4822 15.569 10.4822 14.2V4.91111C10.4822 3.5421 10.4822 2.85758 10.7487 2.33469C10.983 1.87473 11.357 1.50078 11.8169 1.26643C12.3398 1 13.0243 1 14.3933 1H16.5933M22.7044 7.11111L16.5933 1M22.7044 7.11111H18.5489C17.8643 7.11111 17.5221 7.11111 17.2607 6.9779C17.0306 6.86071 16.8438 6.67374 16.7266 6.44376C16.5933 6.18232 16.5933 5.84006 16.5933 5.15556V1" stroke-width="2" stroke-linecap="round" stroke-linejoin="round"/>
</svg>
