<svg width="24" height="24" viewBox="0 0 24 24" fill="none" xmlns="http://www.w3.org/2000/svg">
<g clip-path="url(#clip0_960_3935)">
<path d="M9.75 23.25H16.1785C17.5987 23.25 18.75 22.0989 18.75 20.6791L18.7499 16.8228C18.7499 15.4029 17.5987 14.2519 16.1785 14.2519L9.75 14.2503M9.75 23.25H3.32143C1.90126 23.25 0.75 22.0989 0.75 20.6791V14.2503M9.75 23.25V14.2503M9.75 14.2503V7.8215C9.75 6.4016 8.59875 5.25061 7.17857 5.25061H3.32143C1.90126 5.25061 0.75 6.4016 0.75 7.8215V14.2503M9.75 14.2503H0.75" stroke-width="2"/>
<path d="M23.25 3.32087C23.25 1.90098 22.0987 0.75 20.6785 0.75H16.8215C15.4013 0.75 14.25 1.90098 14.25 3.32087V7.17719C14.25 8.5971 15.4013 9.74805 16.8215 9.74805H20.6785C22.0987 9.74805 23.25 8.5971 23.25 7.17719V3.32087Z" stroke-width="2"/>
</g>
<defs>
<clipPath id="clip0_960_3935">
<rect width="24" height="24" fill="white"/>
</clipPath>
</defs>
</svg>
