<svg width="24" height="24" viewBox="0 0 32 32" fill="none" xmlns="http://www.w3.org/2000/svg">
<path d="M13 31H21.5714C23.465 31 25 29.4653 25 27.5722L24.9999 22.4304C24.9999 20.5372 23.4649 19.0026 21.5714 19.0026L13 19.0004M13 31H4.42857C2.53502 31 1 29.4653 1 27.5722V19.0004M13 31L13 19.0004M1 19.0004V10.4287C1 8.5355 2.53502 7.00085 4.42857 7.00085H9.57143C11.465 7.00085 13 8.5355 13 10.4287V19.0004M1 19.0004L13 19.0004" stroke-width="2"/>
<path d="M31 4.42783C31 2.53464 29.465 1 27.5714 1H22.4286C20.535 1 19 2.53464 19 4.42783V9.56959C19 11.4628 20.535 12.9974 22.4286 12.9974H27.5714C29.465 12.9974 31 11.4628 31 9.56959V4.42783Z" stroke-width="2"/>
</svg>
