<svg width="24" height="24" viewBox="0 0 24 24" fill="none" xmlns="http://www.w3.org/2000/svg">
<path d="M2.5 5.28446H8.07798M14.1208 5.28446H12.2615M8.07798 5.28446V2M8.07798 5.28446H12.2615M12.2615 5.28446C12.2615 5.28446 11.3793 10.6682 9.00765 12.7918C6.60125 14.9464 2.5 15.1378 2.5 15.1378M5.28899 9.50733C5.28899 9.50733 7.20254 12.4858 9.00765 13.7302C10.6222 14.8432 13.656 15.607 13.656 15.607M12.7844 22L12.9587 21.4721L13.656 19.3607L14.1208 17.9531M21.5 22L21.3257 21.4721L20.6284 19.3607L20.1636 17.9531M14.1208 17.9531L16.29 11.3842H17.9944L20.1636 17.9531M14.1208 17.9531H20.1636" stroke-width="2.5" stroke-linecap="round" stroke-linejoin="round"/>
</svg>
