<svg width="24" height="24" viewBox="0 0 24 24" fill="none" xmlns="http://www.w3.org/2000/svg">
<path d="M4 15.7894C4 14.8593 4.79594 14.1052 5.77778 14.1052H8.44444C9.42628 14.1052 10.2222 14.8593 10.2222 15.7894V18.3158C10.2222 19.246 9.42628 20 8.44444 20H5.77778C4.79594 20 4 19.246 4 18.3158V15.7894Z" stroke-width="2"/>
<path d="M13.7778 15.7894C13.7778 14.8593 14.5738 14.1052 15.5556 14.1052H18.2223C19.2041 14.1052 20.0001 14.8593 20.0001 15.7894V18.3158C20.0001 19.246 19.2041 20 18.2223 20H15.5556C14.5738 20 13.7778 19.246 13.7778 18.3158V15.7894Z" stroke-width="2"/>
<path d="M4 5.92485C4 4.86175 4.90965 4 6.03177 4H17.9683C19.0904 4 20 4.83649 20 5.89959V8.78686C20 9.84995 19.0904 10.737 17.9683 10.737C16.7781 10.737 7.22196 10.737 6.03177 10.737C4.90965 10.737 4 9.87522 4 8.81212V5.92485Z" stroke-width="2"/>
</svg>
