<svg width="28" height="16" viewBox="0 0 28 16" fill="none" xmlns="http://www.w3.org/2000/svg">
<path d="M7.6 9.7C8.48366 9.7 9.2 8.98366 9.2 8.1C9.2 7.21634 8.48366 6.5 7.6 6.5C6.71634 6.5 6 7.21634 6 8.1C6 8.98366 6.71634 9.7 7.6 9.7Z" />
<path d="M13.9999 9.7C14.8836 9.7 15.5999 8.98366 15.5999 8.1C15.5999 7.21634 14.8836 6.5 13.9999 6.5C13.1162 6.5 12.3999 7.21634 12.3999 8.1C12.3999 8.98366 13.1162 9.7 13.9999 9.7Z" />
<path d="M20.4 9.7C21.2837 9.7 22 8.98366 22 8.1C22 7.21634 21.2837 6.5 20.4 6.5C19.5164 6.5 18.8 7.21634 18.8 8.1C18.8 8.98366 19.5164 9.7 20.4 9.7Z" />
</svg>
