<svg width="24" height="24" viewBox="0 0 24 24" fill="none" xmlns="http://www.w3.org/2000/svg">
<g clip-path="url(#clip0_946_3906)">
<path d="M11.4762 14.0961L9.24472 15.4421M1.52381 14.0961L3.5741 15.4421M10.0008 17.7643C10.0008 18.0067 10.0008 18.2396 10.0008 18.438C10.0008 18.9822 9.79824 19.6024 9.44714 20.1748M10.0008 17.7643C10.0008 16.9101 10.0008 15.9379 10.0008 15.9379L9.71727 15.65H9.24472M10.0008 17.7643L12 17.7628M11.4762 21.4295L9.44714 20.1748M9.44714 20.1748C8.81303 21.2084 7.69441 22.0859 6.40941 22.0767C5.11318 22.0674 3.98938 21.1652 3.37251 20.1213M1.52381 21.4295L3.37251 20.1213M3.37251 20.1213C3.05208 19.5791 2.86842 18.9986 2.86842 18.4853C2.86842 18.2744 2.86842 18.0248 2.86842 17.7643M2.86842 17.7643C2.86842 16.8578 2.86842 15.8193 2.86842 15.8193L3.10155 15.65H3.5741M2.86842 17.7643L1 17.7628M3.5741 15.65H6.40941H9.24472M3.5741 15.65V14.9412C3.59023 13.3834 4.85156 12.1351 6.40941 12.1351C7.96726 12.1351 9.22859 13.3834 9.24472 14.9412V15.65M13.4977 15.65C13.4977 15.65 23 10.0113 23 9.90566C23 9.80179 8.4381 0.897027 8.33333 1.0009C8.22857 1.10655 8.33333 9.38588 8.33333 9.38588" stroke-width="2" stroke-linecap="round"/>
</g>
<defs>
<clipPath id="clip0_946_3906">
<rect width="24" height="24" fill="white"/>
</clipPath>
</defs>
</svg>
