<svg width="24" height="24" viewBox="0 0 24 24" fill="none" xmlns="http://www.w3.org/2000/svg">
<g clip-path="url(#clip0_1039_4079)">
<path d="M11.6584 19.9386C10.0396 19.0404 8.50314 17.9322 7.28538 16.7145C3.1685 12.5976 0.420643 4.8796 2.57088 2.57104C4.72112 0.262489 12.5975 3.16866 16.7144 7.28552C20.8313 11.4024 23.6957 19.162 21.4289 21.429C20.5454 22.3125 18.8276 22.4166 16.8163 21.9708M14.4671 21.2529C14.4896 21.2615 14.5121 21.2701 14.5345 21.2786" stroke-width="2" stroke-linecap="round" stroke-linejoin="round"/>
<path d="M19.9713 12.3571C19.0731 13.9759 17.9649 15.5124 16.7472 16.7301C12.6303 20.847 4.9123 23.5949 2.60375 21.4446C0.295193 19.2944 3.20136 11.418 7.31823 7.30111C11.4351 3.18422 19.1947 0.319811 21.4617 2.58661C22.3452 3.47006 22.4493 5.18789 22.0035 7.19923M21.2856 9.54844C21.2942 9.52593 21.3028 9.50344 21.3113 9.48096" stroke-width="2" stroke-linecap="round" stroke-linejoin="round"/>
<path d="M10.5858 10.5858C9.80474 11.3668 9.80474 12.6332 10.5858 13.4142C11.3668 14.1953 12.6332 14.1953 13.4142 13.4142C14.1953 12.6332 14.1953 11.3668 13.4142 10.5858C12.6332 9.80474 11.3668 9.80474 10.5858 10.5858Z" stroke-width="2" stroke-linecap="round" stroke-linejoin="round"/>
</g>
<defs>
<clipPath id="clip0_1039_4079">
<rect width="24" height="24" fill="white"/>
</clipPath>
</defs>
</svg>
