<svg width="25" height="24" viewBox="0 0 25 24" fill="none" xmlns="http://www.w3.org/2000/svg">
<g clip-path="url(#clip0_928_3871)">
<path d="M14.4594 11.9339L24.1794 2.21394C24.3978 1.95887 24.512 1.63077 24.499 1.2952C24.486 0.959636 24.3469 0.641318 24.1095 0.403858C23.872 0.166399 23.5537 0.0272883 23.2181 0.0143267C22.8826 0.00136521 22.5545 0.115507 22.2994 0.333942L12.5794 10.0539L2.85939 0.320609C2.60432 0.102174 2.27622 -0.0119672 1.94065 0.000994381C1.60509 0.0139559 1.28677 0.153065 1.04931 0.390525C0.811849 0.627984 0.672738 0.946302 0.659777 1.28187C0.646815 1.61744 0.760957 1.94554 0.979392 2.20061L10.6994 11.9339L0.966059 21.6539C0.826483 21.7735 0.713123 21.9206 0.633091 22.086C0.55306 22.2514 0.508086 22.4316 0.500994 22.6152C0.493901 22.7988 0.524842 22.9819 0.591875 23.153C0.658908 23.3241 0.760585 23.4795 0.890525 23.6095C1.02046 23.7394 1.17586 23.8411 1.34696 23.9081C1.51806 23.9752 1.70117 24.0061 1.8848 23.999C2.06842 23.9919 2.2486 23.9469 2.41402 23.8669C2.57944 23.7869 2.72653 23.6735 2.84606 23.5339L12.5794 13.8139L22.2994 23.5339C22.5545 23.7524 22.8826 23.8665 23.2181 23.8536C23.5537 23.8406 23.872 23.7015 24.1095 23.464C24.3469 23.2266 24.486 22.9082 24.499 22.5727C24.512 22.2371 24.3978 21.909 24.1794 21.6539L14.4594 11.9339Z" />
</g>
<defs>
<clipPath id="clip0_928_3871">
<rect width="24" height="24" fill="white" transform="translate(0.5)"/>
</clipPath>
</defs>
</svg>
