<svg width="25" height="24" viewBox="0 0 25 24" fill="none" xmlns="http://www.w3.org/2000/svg">
<g clip-path="url(#clip0_928_3869)">
<path fill-rule="evenodd" clip-rule="evenodd" d="M24.5 3.6C24.5 1.61178 22.8883 0 20.9 0H4.1C2.11178 0 0.5 1.61178 0.5 3.6V20.4C0.5 22.3883 2.11178 24 4.1 24H20.9C22.8883 24 24.5 22.3883 24.5 20.4V3.6ZM22.1 3.6C22.1 2.93726 21.5628 2.4 20.9 2.4H4.1C3.43726 2.4 2.9 2.93726 2.9 3.6V20.4C2.9 21.0628 3.43726 21.6 4.1 21.6H20.9C21.5628 21.6 22.1 21.0628 22.1 20.4V3.6Z" />
</g>
<defs>
<clipPath id="clip0_928_3869">
<rect width="24" height="24" fill="white" transform="translate(0.5)"/>
</clipPath>
</defs>
</svg>
