<svg width="25" height="24" viewBox="0 0 25 24" fill="none" xmlns="http://www.w3.org/2000/svg">
<g clip-path="url(#clip0_928_3865)">
<path d="M22.25 0H7.25C6.00781 0 5 1.00781 5 2.25V4.5H2.75C1.50781 4.5 0.5 5.50781 0.5 6.75V21.75C0.5 22.9922 1.50781 24 2.75 24H17.75C18.9922 24 20 22.9922 20 21.75V19.5H22.25C23.4922 19.5 24.5 18.4922 24.5 17.25V2.25C24.5 1.00781 23.4922 0 22.25 0ZM17.75 21.75H2.75V6.75H10.25H17.75V21.75ZM22.25 17.25H20V6.75C20 5.50781 18.9922 4.5 17.75 4.5H7.25V2.25H22.25V17.25Z" />
</g>
<defs>
<clipPath id="clip0_928_3865">
<rect width="24" height="24" fill="white" transform="translate(0.5)"/>
</clipPath>
</defs>
</svg>
